<svg width="1672" height="941" viewBox="0 0 1672 941" fill="none" xmlns="http://www.w3.org/2000/svg">
<path d="M258.987 285.929C316.902 244.601 376.713 205.993 438.225 170.232C470.172 151.379 504.311 133.939 538.6 119.722C543.558 118.374 549.133 116.459 554.151 115.581C574.226 112.067 594.002 106.153 605.839 126.944C613.32 165.524 571.518 202.002 551.951 231.384C548.276 236.902 541.519 241.826 537.841 248.006C511.762 280.465 485.272 312.594 458.379 344.383C456.085 347.382 443.056 364.244 440.818 365.799C436.148 371.671 431.447 377.516 426.714 383.337C425.839 384.396 420.786 389.959 420.367 390.584L415.571 398.147C427.916 393.043 460.185 362.809 472.498 352.883C521.762 313.173 568.796 270.378 620.99 234.348C642.083 219.788 711.616 164.518 733.778 189.005C736.611 198.97 733.654 206.469 728.476 215.142C716.694 234.875 700.454 254.536 685.677 272.066C669.26 291.376 653.225 311.007 637.578 330.947C620.372 352.541 603.078 373.762 591.009 398.881C590.223 401.185 588.473 410.903 587.898 413.82C591.768 413.318 595.148 412.726 598.973 411.944C609.882 409.715 617.376 401.322 626.261 396.284C640.007 383.993 656.187 374.021 669.928 361.55C681.836 350.742 693.703 339.055 708.067 331.57C718.299 325.688 730.634 320.084 742.266 317.844C758.618 315.769 780.261 311.201 792.441 325.734L793.019 326.756C794.92 330.36 795.182 333.023 794.446 337.025C790.568 346.393 776.066 362.824 769.711 372.125C764.542 379.689 762.563 383.876 758.134 391.816L759.544 392.94C783.043 386.214 805.195 366.941 823.746 351.287C831.02 345.152 838.947 337.58 847.47 333.337C854.614 323.198 886.976 314.754 899.288 314.705C912.056 314.654 924.711 316.01 935.365 323.737C944.321 340.199 927.339 356.69 917.298 368.856C919.445 362.127 919.829 362.761 916.22 357.181L915.665 357.374C907.337 360.193 899.794 353.896 891.85 367.501L892.667 369.171C888.846 372.857 874.755 386.257 873.212 390.773L872.077 391.01L870.869 390.587C857.324 398.755 840.572 408.673 823.819 404.526C822.17 404.108 820.537 403.642 818.913 403.129C812.558 399.95 810.242 396.416 807.263 390.227C806.861 387.907 806.586 386.199 805.893 383.915C804.196 386.498 803.226 387.662 801.232 389.969C785.744 393.589 775.116 405.307 758.475 406.003C747.205 406.474 739.801 404.095 734.118 393.773L733.779 393.008C733.374 390.495 733.696 389.209 732.129 387.988L728.414 389.665C712.402 400.776 698.636 411.443 677.699 408.038C670.802 406.916 663.625 401.385 662.051 394.471L660.884 391.019C660.718 389.464 660.408 389.337 659.562 387.917C641.076 404.972 590.032 442.038 566.056 418.273C559.589 411.864 561.873 401.507 565.27 394.122C567.533 388.792 568.97 383.021 572.243 378.187C599.65 337.702 631.794 294.168 665.025 258.671C669.239 254.433 674.057 248.022 678.107 243.277C688.829 230.72 710.285 209.003 715.209 193.626L713.599 194.716C707.975 198.856 697.415 202.357 690.616 206.286C674.543 216.118 660.615 225.448 645.265 236.353C637.73 241.706 630.275 244.602 622.21 251.089C612.576 261.241 596.875 270.855 585.802 279.694C541.631 314.954 498.44 351.253 455.542 388.046C452.697 390.486 449.1 393.043 445.83 394.838C435.413 408.928 411.422 423.317 398.406 435.759C388.157 445.556 377.895 454.377 367.055 463.357C356.733 471.909 349.045 481.333 336.421 487.294C328.947 491.562 322.97 499.547 314.109 503.474C308.127 506.916 301.063 514.953 294.859 519.15C281.058 528.487 267.668 543.651 249.125 539.382C248.1 539.146 247.223 538.556 246.447 537.928C244.923 533.913 245.891 531.917 248.487 528.601C269.724 516.286 285.913 501.191 303.625 484.576C347.035 443.853 381.764 397.65 419.223 351.704C440.449 325.668 462.901 299.622 483.793 273.163C486.315 270.976 499.934 252.437 503.432 248.123L563.595 174.851C573.373 162.368 586.931 144.425 590.443 128.697C592.255 120.583 574.299 122.124 570.021 122.331C564.49 124.071 559.186 126.479 553.873 128.2C541.674 132.151 532.686 138.563 521.676 144.641C512.157 149.896 500.727 153.547 491.094 158.799C482.325 163.195 473.765 169.457 465.232 174.141C436.132 189.487 403.052 212.468 375.588 231.119C369.769 236.58 362.022 241.058 355.607 245.995C313.679 278.272 267.293 303.834 223.512 333.623C184.746 360.001 149.179 389.565 107.512 411.484C94.561 418.296 83.8506 429.808 69.2051 434.564C62.2201 437.379 45.6673 440.79 40.5446 433.573L40.7994 432.293C42.8977 429.413 43.4213 429.173 46.5344 427.439C52.6181 424.545 56.0635 420.74 61.4138 417.605C76.6985 408.65 90.5957 398.871 105.227 389.01C140.424 365.292 175.896 341.746 211.225 318.24C221.409 311.464 249.397 290.673 258.987 285.929ZM850.679 385.704C860.892 379.26 870.787 371.32 880.6 364.268C887.172 359.544 892.389 353.413 899.573 350.272C905.599 344.266 912.505 335.766 916.253 328.17L916.522 327.596C883.809 328.726 863.733 346.29 841.903 369.532C841.135 370.351 840.384 371.179 839.641 372.017C837.886 375.079 838.163 376.229 834.196 375.446C828.538 377.552 828.007 387.418 827.411 392.586C839.282 389.735 836.702 392.364 850.679 385.704ZM706.105 388.725C728.53 375.257 754.784 350.063 770.173 328.933C750.026 321.636 687.872 372.208 685.611 394.335C687.772 394.264 703.315 389.599 706.105 388.725Z" fill="#FBFBFB"/>
<path d="M86.4974 413.287C87.9547 411.942 104.402 401.508 107.383 399.504L172.708 356.022L342.66 243.405C373.093 223.245 403.991 203.796 435.33 185.075C450.661 175.883 468.155 164.981 484.122 157.047L484.285 158.761C479.13 163.004 471.331 166.319 466.186 170.736C465.805 172.094 465.488 173.228 465.232 174.141C436.132 189.487 403.052 212.468 375.588 231.119C369.769 236.58 362.022 241.058 355.607 245.995C313.679 278.272 267.293 303.834 223.512 333.623C184.746 360.001 149.179 389.565 107.512 411.484C94.561 418.296 83.8506 429.808 69.2051 434.564C62.2201 437.379 45.6673 440.79 40.5446 433.573L40.7994 432.293C42.8977 429.413 43.4213 429.173 46.5344 427.439L49.9135 429.403L50.5634 430.567C58.5559 432.064 71.2215 422.281 79.0775 417.718C81.1834 416.297 84.2408 414.615 86.4974 413.287Z" fill="#CFCCCB"/>
<path d="M69.2051 434.564C83.0089 425.03 98.0805 415.538 112.151 406.13L259.873 307.675L341.934 252.234C348.01 248.202 369.517 233.483 375.588 231.119C369.769 236.58 362.022 241.058 355.607 245.995C313.679 278.272 267.293 303.834 223.512 333.623C184.746 360.001 149.179 389.565 107.512 411.484C94.561 418.296 83.8506 429.808 69.2051 434.564Z" fill="#514E4E"/>
<path d="M86.4974 413.287C85.7659 416.776 84.4368 418.182 80.6422 418.655L79.0775 417.718C81.1834 416.297 84.2409 414.615 86.4974 413.287Z" fill="#CFCCCB"/>
<path d="M620.909 244.588C621.937 244.915 622.694 245.041 623.772 245.024C623.076 247.188 622.442 248.811 622.21 251.089C612.577 261.241 596.875 270.855 585.802 279.694C541.631 314.954 498.441 351.252 455.542 388.046C452.697 390.486 449.1 393.043 445.83 394.838C435.413 408.928 411.422 423.317 398.406 435.759C388.157 445.556 377.895 454.377 367.055 463.357C356.733 471.909 349.046 481.333 336.421 487.294C328.947 491.562 322.97 499.547 314.109 503.474C308.127 506.916 301.063 514.953 294.859 519.15C281.058 528.487 267.668 543.651 249.125 539.382C248.1 539.146 247.223 538.556 246.447 537.928C244.923 533.913 245.891 531.917 248.487 528.601C250.899 531.441 250.006 531.283 253.03 531.843C258.229 532.228 262.343 531.015 266.609 527.916C299.544 505.444 328.991 473.963 361.528 451.629C404.64 423.036 442.58 386.401 483.325 354.348C528.73 318.628 572.567 276.454 620.909 244.588Z" fill="#CFCCCB"/>
<path d="M314.109 503.474C319.109 497.316 445.15 395.105 445.83 394.838C435.413 408.928 411.422 423.317 398.406 435.759C388.157 445.556 377.895 454.377 367.055 463.357C356.733 471.909 349.045 481.333 336.421 487.294C328.947 491.562 322.97 499.547 314.109 503.474Z" fill="#6B6A6A"/>
<path d="M605.839 126.944C613.32 165.524 571.518 202.002 551.951 231.384C548.276 236.902 541.519 241.826 537.841 248.006C511.762 280.465 485.272 312.594 458.379 344.383C456.085 347.382 443.056 364.244 440.818 365.799L440.128 363.916C438.574 363.113 438.554 363.212 437.73 361.573C438.553 358.821 439.546 358.603 441.887 356.388C444.095 352.931 448.508 347.771 451.246 344.51C443.456 344.857 420.154 381.405 411.075 388.554C412.531 384.625 429.404 364.37 433.104 359.727L505.721 269.644L546.422 217.496C553.117 208.98 558.66 199.901 566.767 192.512C584.544 171.1 598.272 153.958 605.839 126.944Z" fill="#CFCCCB"/>
<path d="M605.839 126.944C613.32 165.524 571.518 202.002 551.951 231.384C548.276 236.902 541.519 241.826 537.841 248.006C535.723 249.043 536.013 249.363 534.336 248.879C534.873 246.577 535.012 245.373 535.222 243.015C537.708 237.285 579.974 190.547 579.595 183.263L578.533 183.001C575.39 187.6 572.506 191.678 566.767 192.512C584.544 171.1 598.272 153.958 605.839 126.944Z" fill="#DBD8D6"/>
<path d="M535.222 243.015C535.012 245.372 534.873 246.577 534.336 248.879C536.013 249.363 535.723 249.043 537.841 248.006C511.762 280.465 485.272 312.594 458.379 344.383C456.085 347.382 443.056 364.244 440.818 365.799L440.128 363.916C438.574 363.113 438.554 363.212 437.73 361.572C438.553 358.82 439.546 358.603 441.887 356.388C444.095 352.931 448.508 347.771 451.246 344.51C453.836 341.702 456.471 338.542 458.896 335.58C478.696 311.412 499.236 287.766 518.712 263.358C524.144 256.55 529.222 249.336 535.222 243.015Z" fill="#E1DFDF"/>
<path d="M733.778 189.005C736.612 198.97 733.654 206.469 728.476 215.142C716.694 234.875 700.455 254.536 685.677 272.066C669.26 291.376 653.225 311.007 637.578 330.947C620.372 352.541 603.078 373.762 591.009 398.881C589.018 401.384 586.986 404.842 584.586 406.434L582.101 406.429L581.439 416.229C581.201 414.982 580.253 410.451 580.297 409.633C580.932 397.594 588.518 378.666 596.244 369.637C602.687 358.492 609.08 350.222 617.017 340.292C626.985 325.575 657.045 288.826 668.976 275.901C681.818 257.6 729.413 207.345 733.778 189.005Z" fill="#DCD8D6"/>
<path d="M668.976 275.901C674.743 275.433 673.25 272.697 677.18 272.309C676.14 275.249 623.223 339.833 621.438 341.139C621.651 338.802 621.962 339.402 620.839 337.995C618.82 338.807 618.709 338.896 617.017 340.292C626.985 325.575 657.045 288.826 668.976 275.901Z" fill="#CFCCCB"/>
<path d="M596.244 369.637L598.381 369.762C602.288 364.879 608.672 351.739 613.141 349.876L614.199 350.869C614.021 353.676 602.584 367.334 600.098 371.838C593.908 383.053 586.267 394.288 582.101 406.429L581.439 416.229C581.201 414.982 580.253 410.451 580.297 409.633C580.932 397.594 588.518 378.666 596.244 369.637Z" fill="#CFCCCB"/>
<path d="M248.487 528.601C269.724 516.286 285.913 501.191 303.625 484.576C347.035 443.853 381.764 397.65 419.223 351.704C440.449 325.668 462.901 299.622 483.792 273.163L487.872 274.317C422.184 354.627 359.81 440.904 281.54 509.421C278.982 511.659 253.338 531.308 253.03 531.843C250.006 531.283 250.899 531.441 248.487 528.601Z" fill="#E1DFDF"/>
<path d="M660.311 379.147L662.319 380.587C662.544 384.633 660.794 384.268 659.562 387.917C641.077 404.972 590.032 442.038 566.056 418.273C559.589 411.864 561.873 401.507 565.27 394.122C565.096 396.234 564.941 398.349 564.804 400.464C564.33 408.125 571.149 414.608 578.603 415.327C592.498 431.562 647.781 387.094 660.311 379.147Z" fill="#CFCCCB"/>
<path d="M258.987 285.929C247.046 300.935 199.659 329.741 181.343 342.572C164.097 354.655 139.42 369.04 122.516 381.271C113.321 387.924 52.5601 428.935 49.9136 429.403L46.5345 427.439C52.6182 424.545 56.0636 420.74 61.4139 417.605C76.6986 408.65 90.5958 398.871 105.227 389.01C140.424 365.292 175.896 341.746 211.226 318.24C221.409 311.464 249.397 290.673 258.987 285.929Z" fill="#E1DFDF"/>
<path d="M411.075 388.554C420.154 381.405 443.456 344.857 451.246 344.51C448.508 347.771 444.095 352.931 441.887 356.388C439.546 358.603 438.553 358.821 437.73 361.573C438.554 363.212 438.574 363.113 440.128 363.916L440.818 365.799C436.148 371.671 431.447 377.516 426.714 383.337C425.839 384.396 420.786 389.959 420.367 390.584L415.571 398.147C412.163 399.952 385.419 426.708 381.423 430.948L379.846 430.343C377.587 432.466 373.824 436.223 371.514 438.031C374.334 430.207 403.867 397.072 411.075 388.554Z" fill="#C9C8C7"/>
<path d="M420.367 390.584L415.571 398.147C412.164 399.952 385.419 426.708 381.423 430.948L379.846 430.343C388.827 421.187 410.949 396.231 420.367 390.584Z" fill="#2C2929"/>
<path d="M665.025 258.671C664.477 266.14 646.425 284.009 641.228 290.9C616.9 323.155 587.463 352.966 572.873 391.396C571.409 395.25 568.01 402.929 569.558 406.661C571.58 406.976 571.908 406.942 573.965 406.781C575.882 409.546 577.128 412.311 578.603 415.327C571.149 414.608 564.33 408.126 564.804 400.464C564.941 398.349 565.096 396.234 565.27 394.122C567.533 388.792 568.97 383.021 572.243 378.187C599.65 337.702 631.794 294.168 665.025 258.671Z" fill="#E1DFDF"/>
<path d="M792.441 325.734L793.019 326.756C794.92 330.36 795.182 333.023 794.447 337.025C790.568 346.393 776.066 362.824 769.711 372.125C764.542 379.689 762.563 383.876 758.134 391.816C756.77 389.018 759.661 384.764 758.804 379.972C757.515 380.349 754.941 384.689 753.929 386.166L753.042 386.297C750.16 369.036 782.538 339.368 792.441 325.734Z" fill="#CFCCCB"/>
<path d="M793.019 326.756C794.92 330.36 795.182 333.023 794.447 337.025C787.751 341.095 780.155 358.749 771.604 360.057C772.262 356.384 783.642 341.756 785.766 336.896C787.074 333.901 791.254 330.155 793.019 326.756Z" fill="#D7D4D2"/>
<path d="M816.284 387.953C825.15 383.398 825.256 373.59 830.963 366.626C850.214 343.13 881.547 318.372 913.738 321.299C916.694 321.567 921.192 324.4 924.27 323.762C924.458 322.362 924.351 322.131 925.266 321.043C926.197 322.613 925.845 323.828 925.682 325.691C923.535 327.668 911.207 321.262 906.815 323.125C899.345 326.228 889.115 327.986 882.045 331.61C872.297 336.605 835.208 359.035 839.641 372.017C837.886 375.079 838.163 376.229 834.196 375.446C828.538 377.552 828.007 387.418 827.411 392.586C828.171 393.647 829.314 394.947 829.55 396.16C828.718 395.879 828.269 395.746 827.681 395.032C823.868 390.434 821.484 390.063 816.284 387.953Z" fill="#CFCCCB"/>
<path d="M891.85 367.501L892.667 369.171C888.846 372.857 874.755 386.257 873.212 390.773L872.077 391.01L870.869 390.587C857.325 398.755 840.572 408.673 823.819 404.526C822.17 404.108 820.537 403.642 818.913 403.129L820.211 402.054C820.978 399.017 807.216 393.939 814.166 382.934C815.857 384.307 815.657 385.452 816.284 387.953C821.484 390.063 823.868 390.434 827.681 395.032C828.269 395.746 828.718 395.879 829.55 396.16C852.5 398.026 863.194 386.094 881.09 374.316C883.433 372.77 884.65 371.939 887.466 371.508C888.797 370.836 890.716 368.656 891.85 367.501Z" fill="#CFCCCB"/>
<path d="M891.85 367.501L892.667 369.171C888.846 372.857 874.755 386.257 873.212 390.773L872.077 391.01L870.869 390.587C871.897 389.514 872.33 389.269 872.542 387.79L868.877 388.133C874.543 382.133 881.849 377.826 886.936 372.114L887.466 371.508C888.797 370.836 890.716 368.656 891.85 367.501Z" fill="#2C2929"/>
<path d="M753.106 397.96C772.189 396.835 779.499 390.606 795.208 380.812C797.648 379.291 803.53 375.798 806.225 374.941C810.111 383.06 800.831 382.691 799.672 387.929L801.232 389.969C785.744 393.589 775.116 405.306 758.475 406.003C747.205 406.474 739.801 404.095 734.118 393.773C736.721 393.038 738.357 390.813 742.296 388.88C746.983 395.012 745.001 394.326 753.106 397.96Z" fill="#CFCCCB"/>
<path d="M677.607 398.201C693.006 404.32 708.534 393.651 721.249 386.098C724.748 384.02 727.669 381.33 731.454 379.675L732.033 379.429C729.323 383.235 729.506 382.236 730.549 387.072L728.414 389.665C712.402 400.776 698.636 411.443 677.699 408.038C670.802 406.916 663.625 401.385 662.051 394.471C664.458 394.563 664.985 394.641 667.264 393.919C668.971 391.813 668.954 391.059 669.011 388.375L669.496 389.678C672.119 393.711 673.454 395.773 677.607 398.201Z" fill="#CFCCCB"/>
<path d="M484.122 157.047C500.286 144.929 559.073 118.418 579.857 118.461C577.401 119.62 570.479 121.591 570.088 122.001L570.021 122.331C564.49 124.071 559.186 126.479 553.873 128.2C541.674 132.151 532.686 138.563 521.676 144.641C512.157 149.896 500.727 153.547 491.094 158.799C482.325 163.194 473.765 169.457 465.232 174.141C465.488 173.228 465.805 172.094 466.186 170.736C471.331 166.319 479.13 163.004 484.285 158.76L484.122 157.047Z" fill="#BAB8B7"/>
<path d="M682.336 204.449C686.825 204.67 689.377 201.241 692.44 202.128C692.39 203.869 691.561 204.792 690.616 206.286C674.543 216.118 660.616 225.448 645.265 236.353C637.73 241.706 630.275 244.602 622.21 251.089C622.442 248.811 623.076 247.188 623.772 245.024C622.693 245.041 621.937 244.915 620.909 244.588C627.808 238.434 674.174 208.184 682.336 204.449Z" fill="#CFCCCB"/>
<path d="M483.793 273.163C486.315 270.976 499.934 252.437 503.432 248.123L563.595 174.851L567.224 175.603C549.242 197.664 531.463 219.888 513.889 242.274C505.578 252.659 495.586 263.904 487.872 274.317L483.793 273.163Z" fill="#CFCCCB"/>
<path d="M626.261 396.284C640.007 383.993 656.187 374.021 669.928 361.55C681.836 350.742 693.703 339.055 708.067 331.57L712.805 332.745C695.332 343.347 641.66 393.976 626.261 396.284Z" fill="#E1DFDF"/>
<path d="M847.471 333.337C846.907 334.577 829.24 352.728 827.126 354.585C822.391 358.829 817.165 362.49 811.557 365.486C800.987 371.036 806.415 368.413 800.019 374.62C794.265 380.204 767.303 395.962 759.544 392.94C783.043 386.214 805.195 366.941 823.746 351.287C831.02 345.152 838.947 337.58 847.471 333.337Z" fill="#E1DFDF"/>
<path d="M579.857 118.462C587.359 118.68 596.702 119.678 595.026 129.531C592.372 145.133 576.584 163.807 567.224 175.603L563.595 174.851C573.373 162.368 586.931 144.425 590.443 128.697C592.255 120.583 574.299 122.124 570.021 122.331L570.088 122.001C570.479 121.591 577.401 119.62 579.857 118.462Z" fill="#D6D4D4"/>
<path d="M935.365 323.737C944.321 340.199 927.34 356.69 917.298 368.856C919.445 362.127 919.829 362.761 916.22 357.181C920.89 351.493 934.63 330.746 935.365 323.737Z" fill="#C8C5C3"/>
<path d="M850.679 385.704C860.892 379.26 870.787 371.32 880.6 364.268C887.172 359.544 892.389 353.413 899.574 350.272C898.341 359.794 861.578 385.706 850.679 385.704Z" fill="#E1DFDF"/>
<path d="M682.336 204.449C691.47 199.423 697.78 194.732 707.848 191.403C709.837 194.128 711.329 193.48 713.599 194.716C707.975 198.856 697.415 202.357 690.616 206.286C691.561 204.792 692.39 203.869 692.44 202.128C689.377 201.241 686.825 204.67 682.336 204.449Z" fill="#BAB8B7"/>
<path d="M708.068 331.57C718.3 325.688 730.634 320.084 742.266 317.844C737.827 322.526 720.021 329.091 712.805 332.745L708.068 331.57Z" fill="#E1DFDF"/>
<path d="M732.033 379.429C735.691 377.524 743.724 371.121 747.418 368.311C740.574 376.833 733.961 382.196 733.779 393.008C733.374 390.495 733.696 389.209 732.129 387.988L728.414 389.665L730.549 387.072C729.506 382.236 729.323 383.235 732.033 379.429Z" fill="#928F8E"/>
<path d="M820.668 364.582C812.172 375.758 807.354 375.711 807.263 390.227C806.861 387.907 806.587 386.199 805.893 383.915C804.196 386.498 803.226 387.662 801.233 389.969L799.672 387.929C800.831 382.692 810.111 383.06 806.225 374.941C811.498 372.248 816.029 368.292 820.668 364.582Z" fill="#928F8E"/>
<path d="M660.311 379.147C664.748 376.199 671.663 371.333 676.133 368.912C667.429 377.713 664.782 379.474 660.884 391.019C660.718 389.464 660.408 389.337 659.562 387.917C660.794 384.268 662.544 384.633 662.319 380.587L660.311 379.147Z" fill="#BAB8B7"/>
<path d="M707.848 191.403C713.252 189.386 716.183 188.122 721.94 187.288L722.76 187.951C721.893 188.632 715.765 193.36 715.209 193.626L713.599 194.716C711.329 193.48 709.837 194.128 707.848 191.403Z" fill="#BAB8B7"/>
<path d="M669.496 389.678C673.227 388.764 672.755 388.227 675.521 389.567C676.829 392.002 677.158 395.411 677.607 398.2C673.454 395.772 672.119 393.711 669.496 389.678Z" fill="#E1DFDF"/>
<path d="M371.514 438.031C373.824 436.223 377.587 432.466 379.846 430.343L381.422 430.948C375.546 436.745 370.255 442.703 362.813 446.308C365.45 443.707 368.697 440.314 371.514 438.031Z" fill="#6B6A6A"/>
<path d="M684.867 394.325L684.606 392.67C683.21 392.29 683.011 392.315 681.763 391.51C678.825 385.759 681.031 377.56 684.861 372.604C705.924 345.355 728.347 325.34 763.573 320.893L764.063 322.722C767.032 323.168 770.714 323.621 773.565 324.329C770.605 326.655 767.892 326.519 764.26 326.645C766.507 328.26 768.559 325.621 770.599 328.797L770.173 328.933C750.026 321.636 687.872 372.208 685.611 394.335L684.867 394.325Z" fill="#CFCCCB"/>
<path d="M770.599 328.797L772.496 331.133C771.503 337.919 755.37 354.079 750.49 359.545C740.774 370.425 721.558 379.417 711.731 388.987L706.105 388.725C728.53 375.257 754.784 350.063 770.173 328.933L770.599 328.797Z" fill="#E1DFDF"/>
<path d="M685.611 394.335C687.772 394.264 703.315 389.599 706.105 388.725L711.731 388.987C706.684 392.417 689.031 402.162 684.867 394.325L685.611 394.335Z" fill="#E1DFDF"/>
<path d="M763.573 320.893C768.993 320.75 772.387 320.284 777.045 323.06C775.741 323.77 767.97 322.428 764.063 322.722L763.573 320.893Z" fill="#BAB8B7"/>
<path d="M1059.03 384.112C1072.26 405.633 1155.98 359.902 1170.25 344.674C1207.71 304.717 1336.1 144.55 1393.28 164.791C1398.85 169.961 1397.05 176.95 1396.49 184.008C1377.5 213.197 1351.54 237.998 1324.78 260.07C1303.37 277.74 1282.23 296.029 1258.63 310.554C1251.25 315.096 1241.88 324.801 1233.68 327.515L1227.12 334.395L1227.15 335.073C1229.12 334.129 1229.71 333.691 1231.46 332.368C1234.68 331.444 1238.86 331.47 1242.31 330.636C1248.98 329.026 1255.64 326.126 1262.43 325.32C1270.61 323.42 1283.46 326.323 1289.99 331.593C1291.82 333.306 1291.91 333.96 1292.7 336.374C1291.7 341.905 1285.57 342.648 1281.04 341.291C1278.05 341.356 1274.64 341.274 1271.76 341.936C1259.58 345.79 1249.86 347.354 1238.32 350.458C1230.86 359.306 1225.73 373.577 1226.21 385.276C1249.69 405.372 1318.91 348.845 1338.36 333.194C1348.27 325.215 1362.4 313.147 1375.7 312.2C1379.08 311.959 1380.22 313.881 1382.06 316.199C1383.25 327.804 1371.36 329.546 1372.94 340.779C1373.65 345.801 1380.63 351.476 1381.99 356.698C1413.71 346.754 1449.56 344.317 1481.82 335.427C1486.24 334.206 1492.9 332.466 1497.35 331.771C1534.25 326.005 1571.74 319.228 1609.03 325.68C1613.94 326.529 1629.91 331.829 1627.83 338.492C1622.58 341.676 1617.83 337.087 1611.97 335.5C1591.77 330.031 1577.06 331.003 1556.93 333.644C1525.1 337.819 1491.92 342.589 1460.8 350.723C1438.94 356.118 1406.65 363.548 1384.16 365.067C1386.59 373.837 1386.74 374.927 1383.87 383.695C1368.71 398.578 1353.31 400.661 1332.73 400.839C1324.99 400.907 1303.87 399.932 1297.81 394.911L1293.58 391.401C1292.68 388.977 1292.49 388.045 1292.52 385.46L1291.74 384.57C1279.79 389.647 1259.8 399.415 1247.26 402.411C1220.01 407.652 1196.02 400.279 1202.69 367.665C1204.6 361.784 1205.55 359.934 1209.77 355.407C1192.1 361.035 1187 366.146 1175.06 379.968C1169 386.997 1160.51 396.278 1155.31 403.985C1152.88 407.598 1136.19 406.539 1132.96 399.187C1135.36 393.896 1139.38 387.467 1144.53 384.565C1145.07 384.143 1149.43 376.837 1150.81 374.954C1149.04 375.725 1146.28 376.824 1144.75 377.815C1139.61 380.068 1134.28 382.304 1129.29 384.837C1128.67 385.283 1128.02 385.699 1127.35 386.084C1108.79 396.875 1021.99 416.1 1033.55 373.569L1033.66 372.965L1031.93 372.879C1019.54 386.442 994.93 402.049 976.087 403.127C965.939 403.707 957.571 399.976 957.375 388.733C960.02 388.212 961.302 386.549 963.114 384.729C965.172 387.283 965.319 388.482 966.919 390.881C969.393 391.753 971.262 391.062 973.899 390.522L974.422 391.152C985.647 390.804 1003.46 379.13 1013.05 373.487C1013.16 373.365 1013.27 373.242 1013.38 373.118C1044.27 347.804 1066.81 315.551 1109.16 316.185C1116.85 316.155 1128.13 315.037 1133.51 321.637C1138.85 327.756 1138.4 329.417 1139.61 337.344C1133.2 347.075 1120.28 353.8 1108.92 349.237C1106.65 346.733 1107.03 347.889 1107.17 344.959C1112.69 337.431 1119.28 338.566 1123.75 328.23C1098.69 323.586 1063.78 355.123 1059.73 378.633C1059.43 380.45 1059.19 382.277 1059.03 384.112ZM1368.5 359.358C1360.89 349.575 1359.72 347.309 1355.5 335.611L1354.89 336.178C1348.12 342.654 1354.1 344.208 1346.16 344.429C1342.85 347.144 1325.26 360.865 1324.5 362.647C1339.14 361.262 1353.81 360.165 1368.5 359.358ZM1052.33 380.652C1053.99 383.249 1053.1 382.532 1055.61 383.739L1056.99 383.234L1057.52 381.868C1056.49 373.144 1060.23 367.615 1064.28 360.339L1064.51 360.31C1068.8 357.242 1076.12 347.864 1077.69 342.379L1077.08 341.368C1070.66 344.217 1065.99 353.296 1062.41 358.267L1062.15 358.616C1055.94 361.692 1053.1 374.411 1052.33 380.652ZM1365.7 376.074C1366.65 373.795 1368.4 370.559 1368.06 368.337L1366.45 368.384C1352.15 369.469 1323.63 376.278 1311.92 384.272C1314.47 385.207 1317.46 386.215 1319.93 387.23C1334.3 391.581 1354.24 385.378 1365.7 376.074ZM1287.66 279.419C1312.12 256.057 1371.36 208.774 1384.46 179.97C1379.16 180.284 1366.08 180.434 1362.23 182.859C1322.03 208.11 1284.48 250.938 1251.57 285.352C1237.91 299.635 1235.09 309.265 1218.59 321.603L1219.78 322.522C1240.82 313.262 1267.85 290.635 1287.66 279.419Z" fill="#FBFBFB"/>
<path d="M1062.15 358.617L1062.41 358.267C1065.99 353.296 1070.66 344.217 1077.08 341.368L1077.69 342.379C1076.12 347.864 1068.8 357.242 1064.51 360.31L1064.28 360.339L1062.15 358.617Z" fill="#E1DFDF" fill-opacity="0.984314"/>
<path d="M1160.45 363.37C1166.32 358.468 1174.14 365.771 1174.97 365.274C1183.1 360.411 1204.04 344.033 1215.88 350.005C1214.98 352.26 1212.06 353.753 1209.77 355.407C1192.1 361.035 1187 366.146 1175.06 379.968C1169 386.997 1160.51 396.278 1155.31 403.985C1152.88 407.598 1136.19 406.539 1132.96 399.187C1135.36 393.896 1139.38 387.467 1144.53 384.565C1145.07 384.143 1149.43 376.837 1150.81 374.954C1149.04 375.725 1146.28 376.824 1144.75 377.815C1146.86 373.408 1155.86 368.771 1160.45 363.37Z" fill="#CBC9C7"/>
<path d="M1157.36 369.228C1163.71 368.139 1165.42 367.931 1171.46 369.93C1163.28 377.205 1149.69 398.919 1139.86 397.327C1139.16 398.321 1138.47 399.323 1137.79 400.335C1135.74 400.606 1134.94 400.025 1132.96 399.187C1135.36 393.896 1139.38 387.467 1144.53 384.565C1145.07 384.143 1149.43 376.837 1150.81 374.954C1153.86 372.78 1154.75 371.937 1157.36 369.228Z" fill="#FBFBFB"/>
<path d="M1132.96 399.187C1135.36 393.896 1139.38 387.467 1144.53 384.565C1143.35 387.641 1140.58 394.36 1139.86 397.327C1139.16 398.321 1138.47 399.324 1137.79 400.335C1135.74 400.607 1134.94 400.025 1132.96 399.187Z" fill="#E1DFDF"/>
<path d="M1393.28 164.791C1398.85 169.961 1397.05 176.95 1396.49 184.008C1377.5 213.197 1351.54 237.998 1324.78 260.07C1303.37 277.74 1282.23 296.029 1258.63 310.554C1251.25 315.096 1241.88 324.801 1233.68 327.515C1224.76 331.611 1195.55 345.928 1188.63 350.646C1190.1 347.15 1192.5 345.019 1195.3 342.642C1213.64 338.181 1273.61 296.279 1289.44 282.824C1320.95 259.771 1370.19 217.614 1391.7 184.167C1395.7 177.927 1395.38 171.7 1393.28 164.791Z" fill="#CFCCCB"/>
<path d="M1298.13 387.976C1313.08 397.227 1328.54 398.71 1345.31 393.797C1358.18 390.027 1376.61 382.825 1382.8 369.824C1383.3 368.759 1381.63 365.168 1383.41 362.042C1385.69 361.275 1391.48 361.615 1394.34 361.359C1404.61 360.436 1455.46 344.315 1461.82 348.834L1460.8 350.723C1438.94 356.118 1406.65 363.547 1384.16 365.067C1386.59 373.836 1386.74 374.927 1383.87 383.695C1368.71 398.578 1353.31 400.661 1332.73 400.839C1324.99 400.907 1303.87 399.932 1297.81 394.911C1298.55 393.435 1298.18 389.824 1298.13 387.976Z" fill="#CFCCCB"/>
<path d="M1289.99 331.593C1291.82 333.306 1291.91 333.96 1292.7 336.374C1291.7 341.905 1285.57 342.648 1281.04 341.291C1278.05 341.356 1274.64 341.274 1271.76 341.936C1259.58 345.79 1249.86 347.354 1238.32 350.458C1230.86 359.306 1225.73 373.577 1226.21 385.276C1222.05 380.015 1225.6 374.07 1224.87 369.903C1220 369.894 1220.83 380.004 1220.76 383.738C1212.37 371.025 1226.58 349.078 1237.87 343.149C1248.55 337.542 1269.5 330.06 1281.38 333.184C1285.24 332.85 1286.35 332.783 1289.99 331.593Z" fill="#CFCCCB"/>
<path d="M1271.76 341.936L1273.86 339.914C1270.66 337.293 1261.9 339.876 1258.17 338.086C1261.79 334.917 1274.32 332.605 1275.82 339.005L1277.72 339.643L1281.04 341.291C1278.05 341.356 1274.64 341.274 1271.76 341.936Z" fill="#BAB8B7"/>
<path d="M1289.99 331.593C1291.82 333.306 1291.91 333.96 1292.7 336.374C1291.7 341.905 1285.57 342.648 1281.04 341.291L1277.72 339.643C1280.03 337.985 1291.32 336.743 1294.76 336.269L1281.38 333.184C1285.24 332.85 1286.35 332.783 1289.99 331.593Z" fill="#E1DFDF"/>
<path d="M974.422 391.152C975.165 392.485 975.63 392.774 976.699 393.868C992.138 400.15 1027.72 365.785 1041.1 361.192C1039.86 363.214 1034.91 371.626 1033.66 372.965L1031.93 372.879C1019.54 386.442 994.93 402.049 976.087 403.127C965.939 403.707 957.571 399.976 957.375 388.733C960.02 388.212 961.302 386.549 963.114 384.729C965.172 387.283 965.319 388.482 966.919 390.881C969.393 391.753 971.262 391.062 973.899 390.522L974.422 391.152Z" fill="#CFCCCB"/>
<path d="M1241.13 397.15C1280.79 390.7 1319.43 358.919 1351.39 335.847C1352.65 334.932 1355.23 332.302 1356.58 332.322L1355.5 335.611L1354.89 336.178C1348.12 342.654 1354.1 344.208 1346.16 344.429C1342.85 347.144 1325.26 360.865 1324.5 362.647C1318.43 369.056 1304.7 370.322 1296.84 381.223C1297.11 382.538 1298.09 386.895 1298.13 387.976C1298.18 389.825 1298.55 393.435 1297.81 394.912L1293.58 391.401C1292.68 388.977 1292.49 388.045 1292.52 385.46L1291.74 384.57C1279.79 389.647 1259.8 399.415 1247.26 402.411C1249.4 401.074 1250.9 400.448 1252.15 398.274C1249.19 396.745 1245.19 399.255 1241.13 397.15Z" fill="#928F8E"/>
<path d="M1296.84 381.223C1297.11 382.538 1298.09 386.895 1298.13 387.976C1298.18 389.825 1298.55 393.435 1297.81 394.911L1293.58 391.401C1293.85 386.257 1293.63 385.093 1296.84 381.223Z" fill="#E1DFDF"/>
<path d="M1052.33 380.652C1051.61 369.821 1050.6 366.233 1057.09 356.557C1067.38 341.213 1107.1 310.736 1125.59 322.893C1125.98 325.552 1125.37 325.487 1123.75 328.23C1098.69 323.586 1063.78 355.123 1059.73 378.633C1059.43 380.45 1059.19 382.277 1059.03 384.112L1058.38 381.124L1057.52 381.868C1056.49 373.144 1060.23 367.615 1064.28 360.339L1064.51 360.31C1068.8 357.242 1076.12 347.864 1077.69 342.379L1077.08 341.368C1070.66 344.217 1065.99 353.296 1062.41 358.267L1062.15 358.616C1055.94 361.692 1053.1 374.411 1052.33 380.652Z" fill="#BAB8B7"/>
<path d="M1129.29 384.837C1128.67 385.283 1128.02 385.699 1127.35 386.084C1108.79 396.875 1021.99 416.1 1033.55 373.569C1033.83 377.468 1035.18 385.406 1037.55 388.526C1039.83 388.855 1044.57 387.65 1046.62 386.76C1044.71 386.07 1040.99 385.096 1040.01 383.602L1039.75 381.786L1038.44 384.817L1037.73 384.636C1037.76 381.516 1037.3 382.356 1038.88 380.239C1041.91 380.144 1044.2 381.093 1046.2 383.38C1053.13 391.334 1062.92 396.494 1073.95 395.977C1086.84 395.374 1110.17 388.51 1121.92 382.885C1125.04 384.693 1125.69 385.272 1129.29 384.837Z" fill="#CFCCCB"/>
<path d="M1247.26 402.411C1220.01 407.652 1196.02 400.279 1202.69 367.665C1207.16 382.738 1211.33 390.777 1227.43 395.218C1231.72 396.404 1238.14 396.204 1241.13 397.15C1245.19 399.255 1249.19 396.745 1252.15 398.274C1250.9 400.448 1249.4 401.074 1247.26 402.411Z" fill="#CFCCCB"/>
<path d="M1013.05 373.487C1013.16 373.365 1013.27 373.242 1013.38 373.118C1044.27 347.804 1066.81 315.551 1109.16 316.185C1101.45 317.651 1100.15 317.439 1092.38 320.135C1071.35 327.428 1056.33 340.898 1040.26 355.734C1035.58 359.801 1018.45 372.752 1013.05 373.487Z" fill="#E1DFDF"/>
<path d="M1133.51 321.637C1138.85 327.756 1138.4 329.417 1139.61 337.344C1133.2 347.075 1120.28 353.8 1108.92 349.237C1106.65 346.733 1107.03 347.889 1107.17 344.958C1114.75 347.848 1126.89 343.67 1130.97 336.468C1134.81 329.671 1134.95 329.172 1133.51 321.637Z" fill="#CFCCCB"/>
<path d="M1382.06 316.199C1383.25 327.804 1371.36 329.546 1372.94 340.779C1373.65 345.801 1380.63 351.476 1381.99 356.698C1379.02 354.914 1372.45 345.318 1370.11 342.015C1360.3 328.181 1371.5 322.432 1382.06 316.199Z" fill="#CFCCCB"/>
<path d="M1121.92 382.885C1129.79 379.328 1136.58 376.104 1144.17 372.003C1148.47 369.681 1156.35 364.597 1160.45 363.37C1155.86 368.771 1146.86 373.408 1144.75 377.815C1139.61 380.068 1134.28 382.304 1129.29 384.837C1125.69 385.272 1125.04 384.693 1121.92 382.885Z" fill="#BAB8B7"/>
<path d="M1188.63 350.646C1195.55 345.928 1224.76 331.612 1233.68 327.515L1227.12 334.395L1227.15 335.073C1229.12 334.129 1229.71 333.691 1231.46 332.368L1229.18 336.286C1219.06 339.704 1210.42 341.293 1200.79 345.204C1197.5 346.54 1188.99 352.662 1186.97 352.527L1188.63 350.646Z" fill="#6B6A6A"/>
<path d="M1231.46 332.368C1234.68 331.444 1238.86 331.47 1242.31 330.636C1248.98 329.026 1255.64 326.126 1262.43 325.32C1256.07 335.861 1239.42 332.212 1229.18 336.286L1231.46 332.368Z" fill="#CFCCCB"/>
<path d="M1203.04 335.434C1204.31 328.669 1216.8 317.243 1221.77 311.549C1257.74 270.293 1296.34 229.921 1338.16 194.574C1347.04 187.068 1357.54 179.047 1367.75 173.452C1372.66 170.972 1389.38 163.719 1391.57 170.905C1390.48 170.049 1390.18 170.18 1388.8 170.085C1386.96 171.516 1386 176.67 1384.46 179.97C1379.16 180.283 1366.08 180.434 1362.23 182.859C1322.03 208.11 1284.48 250.938 1251.57 285.351C1237.91 299.635 1235.09 309.265 1218.59 321.603L1219.78 322.522C1213.69 328.238 1207.47 335.269 1199.68 337.863L1203.04 335.434Z" fill="#CFCCCB"/>
<path d="M1203.04 335.434C1206.07 333.679 1214 324.676 1217.2 321.461L1218.59 321.603L1219.78 322.522C1213.69 328.238 1207.47 335.269 1199.68 337.863L1203.04 335.434Z" fill="#514E4E"/>
<path d="M891.85 367.501C899.794 353.896 907.338 360.193 915.665 357.374L916.22 357.181C919.829 362.761 919.445 362.127 917.298 368.856C914.285 372.78 907.558 382.02 904.35 384.926C902.211 386.152 894.585 393.5 892.838 395.668L892.789 396.835C889.148 400.065 886.65 400.889 881.833 401.472C881.237 403.841 880.494 404.836 881.384 406.606L885.229 405.675C886.789 407.183 886.723 408.12 886.682 410.388C860.019 441.571 836.604 477.976 799.507 497.965C781.67 507.579 759.815 503.891 765.644 479.673C770.671 463.933 791.121 442.328 806.021 433.739C808.032 432.38 809.989 431.309 812.097 430.126C832.767 417.641 858.753 410.165 872.077 391.01L873.212 390.773C874.755 386.257 888.846 372.857 892.667 369.172L891.85 367.501ZM849.805 422.262C818.864 437.104 794.022 452.273 778.18 483.201C777.913 485.973 777.554 489.563 779.008 491.827C792.112 495.347 840.09 434.207 849.805 422.262Z" fill="#FBFBFB"/>
<path d="M881.425 400.54L881.833 401.472C881.237 403.841 880.494 404.836 881.384 406.606L885.229 405.675C886.789 407.183 886.723 408.12 886.682 410.388C860.019 441.571 836.604 477.976 799.507 497.965C781.67 507.579 759.815 503.891 765.644 479.673C766.87 489.797 765.538 485.509 771.361 491.951C797.528 511.134 864.982 420.547 881.425 400.54Z" fill="#CFCCCB"/>
<path d="M891.85 367.501C899.794 353.896 907.338 360.193 915.665 357.374L916.22 357.181C919.829 362.761 919.445 362.127 917.298 368.856C914.285 372.78 907.558 382.02 904.35 384.926C902.211 386.152 894.585 393.5 892.838 395.668L892.789 396.835C889.148 400.065 886.65 400.889 881.833 401.472L881.425 400.54C885.735 396.196 905.419 370.64 905.746 366.91C903.411 365.376 902.023 364.178 899.206 363.932C896.52 364.597 894.7 367.061 892.667 369.172L891.85 367.501Z" fill="#E1DFDF"/>
<path d="M806.021 433.739C797.102 449.712 767.03 466.512 771.361 491.951C765.538 485.509 766.87 489.797 765.644 479.673C770.671 463.933 791.121 442.328 806.021 433.739Z" fill="#E1DFDF"/>
<path d="M872.077 391.01L873.212 390.773C872.355 406.599 844.687 416.405 832.726 422.254C825.428 425.825 820.456 429.723 812.097 430.126C832.767 417.641 858.753 410.165 872.077 391.01Z" fill="#E1DFDF"/>
<path d="M778.18 483.201C775.969 461.537 802.188 443.266 818.962 434.219C824.513 431.224 849.405 417.364 854.198 418.707C853.357 420.647 851.749 421.177 849.805 422.262C818.864 437.104 794.022 452.273 778.18 483.201Z" fill="#CFCCCB"/>
<path d="M1009.36 315.361C1015.24 312.082 1018.69 314.342 1022.28 319.528C1023.25 323.181 1024.88 327.726 1022.39 331.112C1015.32 340.78 1007.3 350.014 999.657 359.245C995.248 364.579 990.603 370.547 985.892 375.517C984.284 375.771 983.133 375.942 981.557 376.369L981.369 377.582L983.459 378.832L983.353 380.087C976.446 384.157 978.455 381.767 973.899 390.522C971.262 391.062 969.393 391.753 966.919 390.881C965.319 388.482 965.172 387.283 963.114 384.729C961.302 386.549 960.02 388.212 957.375 388.733C958.29 380.948 959.955 374.081 964.486 367.632C963.376 368.356 960.298 370.501 959.261 370.871C946.313 382.988 920.866 391.809 904.799 400.296C898.349 403.699 892.152 405.12 886.683 410.388C886.723 408.12 886.789 407.183 885.229 405.675L881.384 406.606C880.494 404.837 881.237 403.841 881.833 401.472C886.65 400.889 889.148 400.065 892.789 396.835L892.838 395.668C894.585 393.5 902.211 386.152 904.35 384.926L904.252 386.239L905.125 387.186C919.967 383.423 944.46 365.444 957.538 357.191C958.747 355.739 975.932 343.644 979.075 341.243C987.158 335.082 1001.46 318.932 1009.36 315.361Z" fill="#FBFBFB"/>
<path d="M1022.28 319.528C1023.25 323.181 1024.88 327.726 1022.39 331.112C1015.32 340.78 1007.3 350.014 999.657 359.245C995.248 364.579 990.603 370.547 985.892 375.517C984.284 375.771 983.133 375.942 981.557 376.369L981.369 377.582L983.459 378.832L983.353 380.087C976.446 384.157 978.455 381.767 973.899 390.522C971.262 391.062 969.393 391.753 966.919 390.881C977.777 384.143 979.5 375.261 984.798 364.062C985.982 361.559 982.243 356.854 983.549 353.949C987.99 351.98 992.317 349.97 996.922 348.423C1003.77 337.366 1013.14 328.728 1022.28 319.528Z" fill="#DCD9D8"/>
<path d="M892.789 396.835C910.285 391.518 937.479 375.656 954.967 366.677C953.171 368.253 950.926 369.725 950.46 371.878C954.036 373.002 954.869 370.711 959.261 370.871C946.313 382.988 920.866 391.809 904.799 400.296C898.349 403.699 892.152 405.12 886.683 410.388C886.723 408.12 886.789 407.183 885.229 405.675L881.384 406.606C880.494 404.836 881.237 403.841 881.833 401.472C886.65 400.889 889.148 400.065 892.789 396.835Z" fill="#CFCCCB"/>
<path d="M957.538 357.191C958.747 355.739 975.932 343.644 979.075 341.243C987.158 335.082 1001.46 318.932 1009.36 315.361C1005.92 324.645 979.671 347.642 971.474 350.179L972.454 349.43C968.25 351.749 961.424 356.381 957.538 357.191Z" fill="#E1DFDF"/>
<path d="M954.967 366.677C957.947 364.968 962.029 363.08 965.172 361.511L966.69 362.405L963.425 364.791L963.31 365.87L964.527 367.274L964.486 367.632C963.376 368.356 960.298 370.501 959.261 370.871C954.869 370.711 954.036 373.002 950.46 371.878C950.925 369.725 953.171 368.253 954.967 366.677Z" fill="#BCB6B4"/>
<path d="M965.172 361.511C967.964 359.823 976.985 353.201 978.683 352.586C978.104 355.909 969.866 361.001 966.69 362.405L965.172 361.511Z" fill="#2C2929"/>
<path d="M1068.64 266.548C1069.82 276.998 1053.31 295.942 1043.69 299.164C1023.85 305.807 1026.34 290.855 1036.31 280.004C1043.03 272.697 1048.64 261.819 1059.87 260.545C1064.15 262.299 1065.64 262.958 1068.64 266.548Z" fill="#CFCCCB"/>
<path d="M1059.87 260.545C1064.15 262.299 1065.64 262.958 1068.64 266.548C1061.52 272.249 1044.55 293.71 1037.36 292.715L1036.3 291.1C1036.68 286.417 1055.2 267.342 1059.87 260.545Z" fill="#FBFBFB"/>
</svg>
