<svg width="1672" height="941" viewBox="0 0 1672 941" fill="none" xmlns="http://www.w3.org/2000/svg">
<path d="M895.181 617.578C890.471 617.028 883.041 614.034 878.38 612.855C769.966 583.842 807.049 531.225 875.433 480.861C917.592 449.817 1067.97 378.55 1107.01 435.25C1114.8 455.277 1096.78 480.675 1081.04 491.812C1074.37 497.112 1068.7 501.688 1061.48 506.32C1057.92 509.029 1051.74 512.674 1047.53 514.252C1030.92 523.047 979.361 546.988 962.486 543.833C961.335 542.772 961.841 543.371 961.261 541.605C964.707 537.69 978.038 534.819 983.002 532.614C1001.09 524.592 1017.47 517.9 1033.7 506.229C1052.76 489.558 1088.47 467.929 1090.63 440.525C1086.88 429.424 1078.1 429.79 1067.84 428.621C1029.19 429.657 992.505 441.743 957.849 458.408C952.003 461.219 940.753 466.436 935.74 469.832C909.281 484.349 836.988 528.656 838.433 562.391C842.131 573.896 849.944 579.489 860.264 585.052C867.954 589.199 900.97 601.088 908.554 601.764C923.151 606.859 932.597 610.89 946.272 617.596C969.417 610.1 1014.79 587.448 1035.99 573.514C1040.02 570.865 1055.87 553.733 1060.48 548.845C1045.16 552.918 1026.88 553.95 1011.08 557.615C1002.7 559.556 977.557 565.703 970.846 562.638L971.189 561.574C985.549 554.473 1047.04 545.292 1065.13 541.942L1065.54 541.443C1076.75 527.652 1091.41 513.38 1104.17 500.99C1109.9 495.42 1118.49 493.096 1125.07 498.642C1129.05 513.297 1102.79 528.116 1096.14 538.903L1096.83 539.65C1101.99 537.828 1123.4 537.291 1129.54 537.717C1141.96 536.004 1186.95 534.922 1197.19 541.113L1197.24 542.129C1192.08 544.241 1157.26 541.256 1147.62 542.107C1130.59 543.611 1112.07 546.449 1095.2 546.881C1093.18 547.331 1088.06 548.346 1086.7 549.84C1079.75 557.525 1073.91 566.27 1067.42 574.411C1050.07 596.188 1027.3 618.301 1014.13 642.943C1012.93 647.094 1012.29 648.609 1012.78 652.837C1040.11 648.421 1074.97 605.661 1095.72 588.571C1101 584.227 1103.99 582.823 1110.24 580.48C1114.13 581.968 1115.06 582.358 1118.5 584.669C1119.78 591.525 1118.43 596.329 1114 601.754C1102 616.462 1091.48 630.896 1081.61 647.181C1110.37 642.913 1146.92 589.212 1172.86 577.002C1175.37 575.818 1179.74 578.36 1182.13 579.805C1187.16 587.703 1182.33 594.082 1177.53 600.532C1167.7 613.742 1154.31 631.376 1149 646.906C1171.84 639.167 1189.99 618.748 1206.56 602.086C1225.52 583.019 1266.27 554.175 1290.86 579.778C1297.78 569.058 1307.21 558.572 1315.21 548.476C1346.38 509.264 1381.65 471.459 1424.5 444.872C1437.99 436.5 1456.39 426.815 1466.92 444.351C1468.23 467.209 1433.18 489.757 1418.29 504.307C1413.22 509.252 1404.76 515.901 1399.29 520.494C1359.97 553.496 1310.67 580.12 1286.41 627.217C1283.68 632.618 1280.4 637.446 1280.88 643.632C1303.18 639.997 1340.58 597.301 1358.52 582.103C1366.04 575.738 1373.6 569.111 1382.19 578.567C1383.02 582.376 1384.53 586.859 1382.16 590.492C1375.92 600.067 1344.41 632.165 1347.77 643.031L1349.36 643.723C1382.97 632.265 1410.91 581.642 1449.59 571.316C1458.08 569.129 1468.63 568.503 1476.43 573.239C1492.36 582.912 1484.41 600.257 1476.82 612.31C1493.75 610.348 1509.52 602.81 1525.7 597.828C1545.14 591.844 1594.47 582.648 1613.9 589.164C1617.23 590.28 1622.31 591.843 1623.97 595.118C1619.62 598.132 1606.24 593.599 1599.22 593.471C1587.89 593.265 1576.28 596.93 1566.09 597.339L1565.44 597.361C1557.43 599.16 1547.42 601.222 1539.76 603.716C1518.92 610.5 1494.79 619.486 1472.55 620.573C1459.12 642.083 1430.2 667.551 1402.99 658.538C1391.65 655.637 1386.33 645.456 1388.89 634.344L1387.71 634.18C1376.07 646.78 1353.37 663.702 1335.31 658.751C1319.48 654.483 1318.27 642.701 1325.35 629.739L1324.15 629.288C1310.8 644.432 1284.61 669.194 1262.3 657.434C1251.89 647.696 1253.67 637.302 1262.19 627.153L1261.61 627.555C1257.15 630.724 1253.26 635.55 1249.1 639.22C1235.03 651.623 1219.93 662.311 1200.25 659.278C1199.33 659.134 1198.4 658.968 1197.49 658.78C1188.49 654.427 1185.83 648.716 1185.19 639.102C1179.51 644.069 1168.55 653.029 1161.57 655.822C1153.7 664.71 1124.91 662.86 1123.73 641.785C1124.77 637.711 1125.99 635.363 1127.78 631.574L1127.3 631.971C1113.61 643.617 1097.04 662.263 1076.11 661.541C1071.83 661.393 1065.11 659.127 1062.02 655.859C1057.39 649.779 1057.49 646.127 1058.58 638.734C1046.09 649.167 1024.19 668.338 1006.34 667.718C1004.77 667.664 999.167 666.154 997.404 665.59C975.156 652.928 1000.73 616.928 1011.92 604.665C1015.23 599.126 1018.66 596.276 1023.54 592.334C1018.37 593.737 1012.84 597.426 1007.98 599.874C990.383 608.747 972.079 615.966 954.101 623.967C985.117 660.233 963.604 684.353 933.169 711.407C915.951 726.704 889.205 743.502 868.46 753.99C838.343 769.219 722.716 820.539 696.598 787.746C681.149 769.081 709.271 741.976 722.436 730.352C762.612 694.879 814.402 668.819 864.387 649.888C871.669 645.947 888.079 640.494 896.096 637.558C905.125 634.25 913.093 630.72 921.943 627.223C917.608 624.481 901.411 620.005 895.181 617.578ZM918.212 692.083C924.882 685.224 929.119 679.897 935.136 673.398C943.627 656.428 946.803 648.588 932.148 633.457C922 637.426 911.607 640.462 901.435 644.626C846.695 667.038 792.146 692.293 745.64 729.419C731.061 741.058 715.205 755.476 710.587 774.122C713.482 777.485 717.664 778.309 721.902 778.816C756.01 782.899 840.686 742.503 872.559 723.731C888.332 714.443 903.835 703.379 918.212 692.083ZM1457.85 446.449C1431.17 446.302 1371.43 518.48 1352.4 538.394C1348.26 542.722 1336.86 555.838 1333.64 560.481L1333.8 561.464L1335.18 561.471C1340.25 554.859 1352.34 546.28 1359.1 540.656C1389.43 515.423 1421.6 491.257 1448.7 462.503C1453.05 457.889 1455.51 452.195 1457.85 446.449ZM1277.58 583.369C1257.14 581.691 1212.39 624.017 1211.37 645.923C1230.14 644.352 1257.85 617.165 1270.19 603.646C1275.97 597.31 1279.86 591.988 1277.58 583.369ZM1458.23 620.583C1442.11 617.452 1438.74 615.012 1436.57 598.563C1427.64 611.482 1415.01 630.066 1415.3 646.487C1430.58 643.034 1437.06 638.517 1448.5 628.221C1451.24 625.758 1455.08 622.336 1458.23 620.583ZM1473.61 586.03C1472.73 583.014 1472.65 582.25 1470.13 580.172C1467.5 579.458 1465.65 579.132 1463.29 580.871C1454.19 587.541 1450.73 594.098 1452.15 604.68C1466.87 617.322 1470.89 596.94 1473.61 586.03Z" fill="#F4F4F3"/>
<path d="M1065.13 541.942L1065.54 541.443C1076.75 527.652 1091.41 513.38 1104.17 500.99C1109.9 495.42 1118.49 493.096 1125.07 498.642C1129.05 513.297 1102.79 528.116 1096.14 538.903L1096.83 539.65C1101.99 537.828 1123.4 537.291 1129.54 537.717C1141.96 536.004 1186.95 534.922 1197.19 541.113L1197.24 542.129C1192.08 544.241 1157.26 541.256 1147.62 542.107C1130.59 543.612 1112.07 546.449 1095.2 546.881C1093.18 547.331 1088.06 548.346 1086.7 549.84C1079.75 557.525 1073.91 566.27 1067.42 574.412C1050.07 596.188 1027.3 618.301 1014.13 642.943C1012.13 640.126 1014.94 640.228 1011.51 635.866L1006.36 645.348C1007.99 626.899 1019.14 616.652 1029.3 603.274C1043.91 584.039 1059.55 566.588 1074.65 547.803C1080.4 540.658 1088.83 534.384 1095.12 527.606C1102.27 519.962 1106.75 510.588 1116.08 505.023C1119.06 503.241 1120.76 501.632 1121.64 498.2L1120.35 496.688C1115.99 495.858 1113.03 499.411 1109.98 501.556C1102.67 506.683 1064.37 547.802 1060.48 548.845C1045.16 552.918 1026.88 553.95 1011.08 557.615C1002.7 559.556 977.557 565.703 970.846 562.638L971.189 561.574C985.549 554.473 1047.04 545.292 1065.13 541.942Z" fill="#E9E7E8"/>
<path d="M1011.51 635.866C1014.49 631.831 1016.55 625.507 1019.29 621.905C1022.98 616.741 1028.3 611.657 1031.82 606.496C1041.95 591.61 1053.34 579.184 1065.93 566.409C1072.47 559.528 1078.28 550.043 1086.49 544.997C1089.62 543.077 1093.87 542.697 1095.2 546.881C1093.18 547.331 1088.06 548.346 1086.7 549.84C1079.75 557.525 1073.91 566.27 1067.42 574.412C1050.07 596.188 1027.3 618.301 1014.13 642.943C1012.13 640.126 1014.94 640.228 1011.51 635.866Z" fill="#CBC8C6"/>
<path d="M1125.07 498.642C1129.05 513.297 1102.79 528.116 1096.14 538.903L1096.83 539.65L1096.04 540.659C1093.8 540.631 1091.26 541.095 1090.02 539.884C1091.94 534.871 1117.6 511.497 1125.07 498.642Z" fill="#C9C7C5"/>
<path d="M1096.83 539.65C1101.99 537.828 1123.4 537.291 1129.54 537.717L1130.45 537.849C1134.98 538.469 1147.21 537.592 1148.53 538.229C1137.48 538.177 1102.08 545.07 1096.04 540.659L1096.83 539.65Z" fill="#F4F4F3"/>
<path d="M696.598 787.746C711.357 794.465 717.065 795.966 733.842 796.598C740.461 796.847 741.663 794.634 747.742 793.645C756.323 792.249 765.216 791.676 773.692 789.358C817.745 776.966 859.855 758.482 898.79 734.44C902.586 732.086 919.51 722.192 919.51 718.158C917.428 721.706 913.901 722.148 910.146 724.511C885.629 739.925 859.921 756.215 832.653 766.179C829.33 767.392 827.069 769.75 823.403 769.9L823.297 769.186C825.183 768.309 827.232 767.336 828.081 765.513C830.775 759.511 838.057 759.296 842.76 755.69C844.989 753.982 851.601 751.475 854.238 752.471C853.969 753.228 852.793 753.903 852.01 754.512L852.745 755.423L851.757 755.129L853.136 753.606L853.422 755.435C858.051 755.166 862.345 749.062 867.538 748.196C866.77 747.327 866.06 746.601 865.072 745.963C866.052 744.218 866.574 743.895 868.297 742.9C866.844 742.828 866.321 742.893 864.958 742.293C867.742 740.757 870.624 739.283 873.114 737.282C883.67 728.791 896.659 724.161 907.436 715.972C915.118 710.132 922.106 703.477 929.846 697.687C934.148 694.465 940.329 693.87 944.484 690.31C949.644 684.894 955.089 675.127 959.057 668.542C964.445 659.585 964.535 650.915 962.249 641.258C960.404 633.455 950.974 626.579 950.983 622.017C955.244 618.945 964.894 616.193 970.193 613.775C980.381 609.266 990.733 604.013 1000.93 599.579C1007.88 596.555 1021.6 586.622 1028.53 587.216C1027.97 589.382 1025.46 590.828 1023.54 592.334C1018.37 593.738 1012.84 597.426 1007.98 599.874C990.382 608.747 972.079 615.966 954.101 623.967C985.117 660.233 963.604 684.353 933.169 711.407C915.951 726.704 889.205 743.502 868.46 753.99C838.343 769.219 722.715 820.539 696.598 787.746Z" fill="#C9C7C5"/>
<path d="M1309.28 581.576C1315.3 578.296 1322.46 561.515 1325.87 559.46C1335.66 553.992 1340.29 545.216 1347.71 536.905C1357.79 525.631 1444.05 424.323 1459.04 445.571L1457.85 446.449C1431.17 446.302 1371.43 518.48 1352.4 538.394C1348.26 542.722 1336.86 555.838 1333.64 560.481L1333.8 561.464L1335.18 561.471L1336.61 562.294C1341.29 560.869 1344.93 558.292 1348.82 555.423C1373.63 536.968 1398.15 517.846 1420.93 496.909C1436.22 482.851 1460.75 464.469 1466.92 444.351C1468.23 467.209 1433.18 489.757 1418.29 504.307C1413.22 509.252 1404.76 515.901 1399.29 520.494C1359.97 553.497 1310.67 580.12 1286.41 627.217C1283.68 632.618 1280.4 637.446 1280.88 643.632L1279.64 643.98L1278.43 646.328L1277.34 646.597L1275.99 644.957C1276.35 633.252 1284.1 618.461 1289.67 607.87C1290.44 606.405 1297.61 600.964 1299.76 597.715C1303.41 592.212 1304.84 586.028 1309.28 581.576Z" fill="#C9C7C5"/>
<path d="M817.19 550.524C817.745 555.543 818.251 561.675 819.264 566.535C824.513 572.712 831.714 576.324 837.355 581.673C853.643 597.106 873.122 597.75 892.936 606.534C909.623 613.935 937.308 618.301 945.896 637.148C948.484 651.378 950.476 665.456 935.136 673.398C943.627 656.428 946.803 648.588 932.148 633.457C922 637.426 911.607 640.462 901.435 644.626C846.695 667.038 792.146 692.293 745.64 729.419C731.061 741.058 715.204 755.476 710.587 774.122L708.78 771.987C708.406 769.449 709.023 767.157 709.994 764.821C726.317 725.584 813.814 679.81 851.757 662.024C864.476 656.063 877.718 651.087 890.65 645.582C883.776 641.92 872.355 651.303 864.386 649.888C871.669 645.947 888.079 640.495 896.096 637.558C905.125 634.25 913.093 630.721 921.943 627.223C917.608 624.481 901.41 620.005 895.181 617.578C898.349 617.61 907.868 619.36 911.999 619.788L914.922 617.201L914.432 616.38C908.619 615.285 894.838 610.486 888.511 608.581C877.775 605.633 865.407 598.693 854.23 596.028C844.964 593.821 820.88 575.038 817.557 567.489L817.394 567.114L816.265 566.781L814.803 568.82C814.231 561.201 815.181 557.875 817.19 550.524Z" fill="#DCDBDA"/>
<path d="M921.943 627.223L925.347 626.68C927.658 626.306 928.05 626.423 930.213 627.374L931.005 628.723C928.564 632.703 898.071 642.563 890.65 645.581C883.776 641.919 872.355 651.303 864.386 649.888C871.669 645.947 888.079 640.495 896.096 637.558C905.125 634.25 913.093 630.721 921.943 627.223Z" fill="#E9E7E8"/>
<path d="M1107.01 435.25C1114.8 455.278 1096.78 480.675 1081.04 491.812C1074.37 497.112 1068.7 501.689 1061.48 506.32C1057.92 509.029 1051.74 512.674 1047.53 514.252C1030.92 523.047 979.361 546.988 962.486 543.833C961.335 542.773 961.841 543.371 961.261 541.606C964.706 537.69 978.038 534.819 983.002 532.614C1001.09 524.592 1017.47 517.9 1033.7 506.229C1032.05 511.877 1032.68 506.569 1030.08 511.864C1034.52 510.759 1034.11 505.613 1038.89 507.287L1039.06 506.602C1039.21 508.123 1038.97 509.261 1038.75 510.763C1039.15 510.542 1039.53 510.317 1039.92 510.088C1064.1 495.656 1087.56 476.293 1103.01 452.411C1104.06 450.8 1106.12 438.726 1107.01 435.25Z" fill="#C9C7C5"/>
<path d="M1033.7 506.229C1032.05 511.877 1032.68 506.569 1030.08 511.864C1034.52 510.759 1034.11 505.613 1038.89 507.287L1039.06 506.602C1039.21 508.123 1038.97 509.261 1038.75 510.763C1035.27 514.998 1026.98 517.639 1022.71 521.949C1023.34 521.838 1023.79 521.742 1024.42 521.58L1025.23 521.362C1032.34 519.517 1037.62 512.008 1042.28 512.033C1040.27 513.732 1037.67 515.826 1035.82 517.592C1039.69 518.402 1042.57 511.815 1047.53 514.252C1030.92 523.047 979.361 546.988 962.486 543.833C961.335 542.773 961.841 543.371 961.261 541.605C964.706 537.69 978.038 534.819 983.002 532.614C1001.09 524.592 1017.47 517.9 1033.7 506.229Z" fill="#E9E7E8"/>
<path d="M1022.71 521.949C1023.34 521.838 1023.79 521.742 1024.42 521.58L1025.23 521.362C1032.34 519.517 1037.62 512.008 1042.28 512.033C1040.27 513.732 1037.67 515.826 1035.82 517.592C1039.69 518.402 1042.57 511.815 1047.53 514.252C1030.92 523.047 979.361 546.988 962.486 543.833C984.619 536.954 1001.18 531.118 1022.71 521.949Z" fill="#BEBBB9"/>
<path d="M1061.48 506.32L1061.08 505.503L1061.43 504.719C1064.11 498.596 1072.15 493.285 1078.19 490.589L1081.04 491.812C1074.37 497.112 1068.7 501.689 1061.48 506.32Z" fill="#DCDBDA"/>
<path d="M876.159 496.073C897.655 476.863 932.907 458.498 959.539 448.144C991.876 435.57 1039.43 419.655 1074.24 424.486C1071.69 424.956 1056.69 426.948 1056.01 427.524C1059.85 427.687 1063.7 427.662 1067.54 427.668L1067.97 428.333L1067.84 428.621C1029.19 429.658 992.505 441.743 957.849 458.408C952.003 461.219 940.753 466.437 935.74 469.832L935.365 464.833C930.401 468.311 926.425 469.345 921.445 472.444C911.199 478.816 900.251 483.469 890.316 490.282C889.801 488.91 890.03 489.199 890.585 487.423C886.691 488.06 882.298 495.128 876.159 496.073Z" fill="#DCDBDA"/>
<path d="M876.159 496.073C882.298 495.128 886.691 488.06 890.585 487.422C890.03 489.199 889.801 488.909 890.316 490.282C900.251 483.469 911.199 478.816 921.445 472.444C926.425 469.345 930.401 468.311 935.365 464.833L935.74 469.832C909.281 484.349 836.988 528.656 838.433 562.392C837.225 560.434 837.87 561.086 835.706 560.059L837.176 559.765L835.878 558.43L836.425 558.833L835.992 558.459L835.975 558.751C834.759 559.441 834.71 559.711 833.771 560.771C834.816 560.221 834.514 560.638 834.914 559.716L833.159 560.608L833.224 560.894L832.114 560.801C830.612 534.823 856.394 509.846 876.159 496.073Z" fill="#C9C7C5"/>
<path d="M1470.44 617.237C1502.24 616.601 1539.07 596.603 1565.44 597.361C1557.43 599.16 1547.42 601.222 1539.76 603.716C1518.92 610.5 1494.79 619.486 1472.55 620.573C1459.12 642.083 1430.2 667.551 1402.99 658.538C1412.36 657.577 1425.45 659.647 1433.1 654.213C1430.18 653.451 1423.23 658.942 1414.32 657.242C1407.57 655.955 1401.05 655.006 1396.01 648.75L1395.52 648.132L1397.29 647.332C1404.11 650.622 1408.82 651.974 1416.5 651.356C1436.79 650.33 1459.45 633.752 1470.44 617.237Z" fill="#C9C7C5"/>
<path d="M1074.29 650.637C1097.29 653.479 1106.8 642.609 1124.38 629.886C1127.57 627.578 1130.63 624.626 1134.53 623.859L1134.95 624.535C1132.4 627.413 1130.88 629.318 1127.78 631.574L1127.3 631.971C1113.61 643.617 1097.04 662.263 1076.11 661.541C1071.83 661.393 1065.11 659.127 1062.02 655.859C1066.47 656.929 1067.23 658.26 1072.77 658.57C1067.8 655.453 1057.74 649.468 1062.59 642.284C1066.01 642.723 1071.35 648.059 1074.29 650.637Z" fill="#C2BFBE"/>
<path d="M1153.84 651.196C1162.88 648.777 1174.95 641.786 1182.82 636.526C1186.3 634.193 1188.61 631.662 1192.76 629.173L1193.67 629.662C1190.35 633.02 1188.16 635.442 1185.19 639.102C1179.51 644.069 1168.55 653.029 1161.57 655.822C1153.7 664.71 1124.91 662.86 1123.73 641.785C1125.38 645.328 1125.78 646.363 1128.34 649.288L1129.11 649.334C1129.73 646.58 1130.16 643.14 1132.28 641.685C1134.91 643.087 1139.88 648.236 1142.42 650.595C1146.17 650.864 1150.1 651.227 1153.84 651.196Z" fill="#DCDBDA"/>
<path d="M1153.84 651.196C1162.88 648.777 1174.95 641.786 1182.82 636.526C1186.3 634.193 1188.61 631.662 1192.76 629.173L1193.67 629.662C1190.35 633.02 1188.16 635.442 1185.19 639.102C1179.51 644.069 1168.55 653.029 1161.57 655.822C1162.29 654.334 1163.34 653.658 1164.5 652.504C1163.49 651.2 1135.79 661.518 1132.32 649.627C1140.54 651.272 1144.36 655.785 1153.18 651.519L1153.84 651.196Z" fill="#BEBBB9"/>
<path d="M1382.19 578.567C1383.02 582.376 1384.53 586.859 1382.16 590.492C1375.92 600.067 1344.41 632.165 1347.77 643.031L1349.36 643.723C1346.58 644.468 1347.49 644.636 1345.09 643.833C1337.19 629.52 1360.99 603.826 1369.3 592.69C1373.31 587.311 1378.69 586.059 1382.19 578.567Z" fill="#C9C7C5"/>
<path d="M1118.5 584.669C1119.78 591.525 1118.43 596.33 1114 601.754C1102 616.462 1091.48 630.896 1081.61 647.181C1078.6 642.124 1083.13 636.843 1083.58 632.083C1085.49 611.054 1112 600.035 1118.5 584.669Z" fill="#BEBBB9"/>
<path d="M1014.29 658.362C1015.41 657.912 1025.05 654.516 1025.63 654.432C1032.05 653.502 1063.65 631.049 1065.52 630.919C1063.39 633.497 1061.03 636.534 1058.58 638.734C1046.09 649.167 1024.19 668.338 1006.34 667.718C1004.77 667.664 999.167 666.155 997.404 665.59C999.73 665.414 1000.76 665.325 1003.01 664.766L1002.91 663.853C998.636 661.538 991.836 658.682 991.15 653.403C991.721 653.161 1003.74 659.878 1013.41 658.492L1014.29 658.362Z" fill="#C0BDBC"/>
<path d="M1201.13 650.611C1225.07 652.501 1233.86 645.008 1252.2 630.949C1256.63 627.563 1261.73 623.394 1266.86 621.178L1267.36 621.939C1265.54 624.623 1264.7 625.155 1262.19 627.153L1261.61 627.555C1257.15 630.724 1253.26 635.55 1249.1 639.22C1235.03 651.623 1219.93 662.311 1200.25 659.278C1199.33 659.134 1198.4 658.968 1197.49 658.78C1201.7 657.991 1213.37 656.962 1217.96 656.707L1218.41 656.686L1217.67 655.835C1214.46 655.341 1215.34 655.475 1212.81 656.489C1207.2 658.746 1187.8 651.489 1190.92 643.569C1191.2 646.957 1192.48 647.854 1194.95 650.729L1195.98 650.509C1197.81 648.231 1197.46 649.27 1197.54 646.615L1198.84 647.45L1198.08 648.443L1198.18 647.477C1198.45 649.768 1198.39 646.446 1201.13 650.611Z" fill="#BEBBB9"/>
<path d="M1335.31 658.751C1347.32 657.64 1350.05 657.742 1361.2 652.782L1361.44 651.793L1359.75 651.582C1349.29 658.727 1329.38 659.212 1326.06 643.057C1326.59 640.989 1326.05 641.794 1327.57 640.477C1329.85 651.054 1335.8 649.61 1344.68 649.945C1365.19 650.717 1377.72 634.04 1393.56 625.431C1391.92 627.687 1388.69 631.827 1387.71 634.18C1376.07 646.78 1353.37 663.702 1335.31 658.751Z" fill="#C9C7C5"/>
<path d="M1182.13 579.805C1187.16 587.703 1182.33 594.082 1177.53 600.532C1167.7 613.742 1154.31 631.376 1149 646.906C1138.94 631.937 1178.88 593.712 1182.13 579.805Z" fill="#C2BFBE"/>
<path d="M1262.3 657.434C1267.67 657.097 1276.83 659.031 1281.91 658.006C1284.57 657.468 1305.08 646.758 1305.62 645.876C1299.29 646.66 1284.86 658.593 1275.78 657.079C1270.69 656.23 1263.72 653.991 1260.34 649.92C1259.96 647.33 1259.72 648.273 1260.92 646.212C1263.14 645.636 1266.96 649.257 1269.03 649.865C1284.13 654.318 1299.5 644.012 1311.96 636.73C1316.97 633.801 1318.69 631.382 1324.15 629.288C1310.8 644.432 1284.61 669.194 1262.3 657.434Z" fill="#C9C7C5"/>
<path d="M832.114 560.801L833.224 560.894L833.159 560.608L834.914 559.716C834.514 560.638 834.816 560.221 833.771 560.772C834.71 559.711 834.759 559.441 835.975 558.751L835.992 558.459L836.425 558.833L835.878 558.43L837.176 559.765L835.706 560.059C837.87 561.086 837.225 560.434 838.433 562.392C842.131 573.896 849.944 579.489 860.264 585.052C867.954 589.199 900.97 601.088 908.554 601.764L905.337 603.255C893.989 603.338 853.594 588.245 844.18 580.02C836.727 573.505 833.559 570.728 832.114 560.801Z" fill="#DCDBDA"/>
<path d="M997.404 665.59C975.156 652.928 1000.73 616.928 1011.92 604.665L1011.74 605.32C1011.05 607.853 1010.83 608.5 1009.55 610.92L1009.92 611.592L1011.93 609.75C1011.41 615.612 986.186 636.514 998.922 650.199C1003.76 655.404 1005.32 657.739 1012.35 658.237L1014.29 658.362L1013.41 658.492C1003.74 659.878 991.721 653.161 991.15 653.403C991.836 658.682 998.636 661.538 1002.91 663.853L1003.01 664.766C1000.76 665.325 999.73 665.414 997.404 665.59Z" fill="#DCDBDA"/>
<path d="M814.803 568.82L816.265 566.781L817.394 567.114L817.557 567.489C820.88 575.038 844.964 593.821 854.23 596.028C865.407 598.693 877.775 605.633 888.511 608.581L888.593 609.647L887.515 610.617C872.183 607.053 855.618 600.641 841.25 594.116C829.02 588.562 819.541 581.83 814.803 568.82Z" fill="#C9C7C5"/>
<path d="M1275.99 644.957C1270.5 634.168 1277.74 620.034 1283.87 611.056C1290.35 601.573 1297.99 585.33 1309.28 581.576C1304.84 586.028 1303.41 592.212 1299.76 597.715C1297.61 600.964 1290.44 606.405 1289.67 607.87C1284.1 618.461 1276.35 633.252 1275.99 644.957Z" fill="#DCDBDA"/>
<path d="M945.896 637.148C957.979 660.62 936.1 680.407 921.576 696.253C919.608 698.399 916.898 700.698 914.244 701.916L913.363 701.304C917.894 696.865 922.702 695.457 923.249 690.251L922.425 690.174L920.465 692.172L918.212 692.083C924.882 685.224 929.119 679.897 935.136 673.398C950.477 665.456 948.484 651.378 945.896 637.148Z" fill="#E9E7E8"/>
<path d="M1067.84 428.621L1067.97 428.333L1067.54 427.668C1063.7 427.662 1059.85 427.687 1056.01 427.524C1056.69 426.948 1071.69 424.956 1074.24 424.486C1083.17 426.867 1095.16 430.155 1094.65 441.438L1094.13 442.077L1092.22 440.177L1090.63 440.525C1086.88 429.424 1078.1 429.791 1067.84 428.621Z" fill="#BEBBB9"/>
<path d="M1395.52 648.132C1393.79 645.555 1392.96 642.456 1393.87 639.427C1398.16 637.542 1405.8 647.67 1409.39 649.637C1411.2 650.625 1414.51 651.048 1416.5 651.356C1408.82 651.974 1404.11 650.622 1397.29 647.332L1395.52 648.132Z" fill="#DCDBDA"/>
<path d="M1006.36 645.348L1011.51 635.866C1014.94 640.228 1012.13 640.126 1014.13 642.943C1012.93 647.094 1012.29 648.609 1012.78 652.837C1011.07 653.82 1009.45 653.527 1007.92 652.562C1006.33 650.02 1006.5 648.29 1006.36 645.348Z" fill="#DCDBDA"/>
<path d="M1402.4 616.917C1398.48 622.887 1393.44 628.778 1388.89 634.344L1387.71 634.18C1388.69 631.827 1391.92 627.687 1393.56 625.431L1402.4 616.917Z" fill="#7C7978"/>
<path d="M1211.37 645.923C1209.87 643.538 1208.35 642.67 1208.22 639.617C1207.69 627.01 1217.26 613.245 1225.6 603.836C1235.32 592.859 1256.1 579.988 1270.98 578.263C1276.43 577.63 1284.71 580.218 1284.96 586.645L1284.23 586.654C1281.79 582.86 1281.64 582.601 1277.58 583.369C1257.13 581.691 1212.39 624.017 1211.37 645.923Z" fill="#BEBBB9"/>
<path d="M1410.66 641.654C1409.45 637.467 1409.57 628.758 1410.92 624.596L1411.33 623.359C1415.01 611.966 1424.05 598.421 1435.06 593.8C1437.96 592.586 1438.39 591.811 1441.2 592.732L1441.69 594.618C1436.64 609.334 1462.13 615.377 1462.42 618.336C1460.67 619.904 1460.42 620.418 1458.23 620.583C1442.11 617.452 1438.74 615.012 1436.57 598.563C1427.64 611.482 1415.01 630.066 1415.3 646.487C1412.85 644.935 1412.31 643.944 1410.66 641.654Z" fill="#C9C7C5"/>
<path d="M1410.66 641.654C1409.45 637.467 1409.57 628.758 1410.92 624.596L1411.33 623.359C1415.01 611.966 1424.05 598.421 1435.06 593.8C1437.96 592.586 1438.39 591.811 1441.2 592.732L1441.69 594.618C1439.74 595.664 1434.26 598.315 1432.87 599.51C1424.03 607.021 1415.21 620.364 1411.39 631.363C1410.68 633.402 1410.68 639.384 1410.66 641.654Z" fill="#DCDBDA"/>
<path d="M796.712 773.897C797.411 773.767 799.051 773.72 799.841 773.672L800.242 774.46C791.597 785.812 783.407 782.873 772.039 786.699C751.629 793.568 723.22 799.35 703.354 787.701C701.388 785.799 699.854 784.382 699.661 781.717C701.459 781.265 706.241 785.97 709.226 786.852C737.099 795.09 770.114 777.543 796.712 773.897Z" fill="#C9C7C5"/>
<path d="M1452.15 604.68C1447.67 601.903 1448.43 591.027 1450.53 586.393C1454.16 578.383 1472.36 571.755 1475.3 582.631C1474.64 583.813 1474.17 584.813 1473.61 586.03C1472.73 583.014 1472.65 582.251 1470.13 580.172C1467.5 579.458 1465.65 579.132 1463.29 580.871C1454.19 587.541 1450.73 594.098 1452.15 604.68Z" fill="#BEBBB9"/>
<path d="M1383.46 557.378C1384.64 544.859 1397.57 533.727 1410.45 537.441L1414.06 540.655C1415.57 545.217 1415.77 547.892 1413.47 552.389C1410.51 558.033 1405.44 562.275 1399.35 564.186C1392.55 566.258 1386.09 564.535 1383.46 557.378Z" fill="#F4F4F3"/>
<path d="M1414.06 540.655C1415.57 545.217 1415.77 547.892 1413.47 552.389C1410.51 558.033 1405.44 562.275 1399.35 564.186C1392.55 566.258 1386.09 564.536 1383.46 557.378C1384.78 557.036 1387.48 556.094 1388.55 556.393C1397.88 560.956 1410.83 548.928 1414.06 540.655Z" fill="#DCDBDA"/>
<path d="M1383.46 557.378C1384.64 544.859 1397.57 533.727 1410.45 537.441C1399.49 538.04 1393.29 547.42 1388.55 556.393C1387.48 556.094 1384.78 557.036 1383.46 557.378Z" fill="#E9E7E8"/>
</svg>
